<?xml version="1.0" standalone="no"?>
<!DOCTYPE svg PUBLIC "-//W3C//DTD SVG 20010904//EN"
 "http://www.w3.org/TR/2001/REC-SVG-20010904/DTD/svg10.dtd">
<svg version="1.0" xmlns="http://www.w3.org/2000/svg"
 width="300.000000pt" height="90.000000pt" viewBox="0 0 300.000000 90.000000"
 preserveAspectRatio="xMidYMid meet">

<g transform="translate(0.000000,90.000000) scale(0.100000,-0.100000)"
fill="#000000" stroke="none">
<path d="M1132 618 c-5 -5 -6 -24 -2 -44 5 -23 4 -34 -4 -34 -7 0 -6 -3 2 -9
8 -4 13 -11 13 -15 -1 -3 6 -17 14 -30 19 -28 56 -43 103 -41 43 2 57 17 43
44 -12 22 -31 29 -31 11 0 -5 -5 -10 -11 -10 -5 0 -8 4 -5 9 4 5 2 19 -2 32
-7 19 -10 20 -15 6 -4 -10 -1 -17 5 -17 6 0 1 -9 -12 -20 -30 -26 -48 -12 -46
35 1 23 -3 35 -11 35 -17 0 -17 37 -1 42 7 3 3 7 -9 10 -12 3 -26 1 -31 -4z"/>
<path d="M1241 620 c10 -7 49 -2 49 5 0 2 -14 3 -31 3 -17 -1 -25 -4 -18 -8z"/>
<path d="M1185 600 c-7 -12 2 -12 30 0 19 8 19 9 -2 9 -12 1 -25 -3 -28 -9z"/>
<path d="M1248 593 c7 -3 16 -2 19 1 4 3 -2 6 -13 5 -11 0 -14 -3 -6 -6z"/>
<path d="M1204 576 c-3 -8 -1 -23 5 -33 9 -15 10 -13 9 15 -2 35 -6 39 -14 18z"/>
<path d="M1274 540 c0 -22 4 -24 26 -10 13 9 13 11 0 20 -22 14 -26 12 -26
-10z"/>
<path d="M1366 475 c-3 -8 -10 -15 -16 -15 -6 0 -8 6 -4 13 5 9 4 9 -7 -1 -11
-10 -11 -14 1 -26 13 -13 18 -13 34 0 11 8 15 14 8 14 -6 0 -9 7 -6 15 4 8 4
15 1 15 -3 0 -7 -7 -11 -15z"/>
<path d="M1428 453 c7 -3 16 -2 19 1 4 3 -2 6 -13 5 -11 0 -14 -3 -6 -6z"/>
<path d="M1400 410 c-26 -26 -26 -44 1 -37 12 3 22 0 26 -9 3 -8 12 -14 20
-14 8 0 11 -5 8 -11 -5 -7 -13 -5 -24 5 -25 22 -32 20 -20 -6 6 -15 19 -23 34
-23 14 0 25 3 25 6 0 3 12 4 26 1 22 -4 24 -6 10 -14 -9 -5 -27 -9 -39 -8 -39
4 -45 0 -40 -19 3 -10 0 -22 -6 -25 -16 -10 -13 -50 6 -93 58 -131 49 -121 95
-113 40 8 56 20 108 87 6 7 10 23 10 37 0 16 9 32 24 41 29 19 32 58 4 49 -10
-3 -18 0 -18 6 0 7 -8 5 -22 -4 -12 -9 -32 -16 -43 -15 -11 0 -14 3 -7 6 6 2
12 12 12 20 0 13 -2 13 -17 2 -9 -8 -19 -13 -22 -13 -3 1 -12 -1 -19 -4 -7 -2
-16 -2 -19 2 -4 3 0 6 8 6 8 1 28 12 44 26 17 14 23 24 15 22 -9 -2 -14 3 -13
12 2 11 -8 15 -39 16 -23 0 -43 5 -45 11 -3 7 -11 9 -19 6 -9 -3 -25 4 -38 18
-20 22 -21 25 -7 36 9 7 13 13 9 13 -5 0 -17 -9 -28 -20z m150 -90 c0 -5 -5
-10 -11 -10 -5 0 -7 5 -4 10 3 6 8 10 11 10 2 0 4 -4 4 -10z m-75 -70 c-3 -5
-12 -10 -18 -10 -7 0 -6 4 3 10 19 12 23 12 15 0z m187 -4 c7 4 8 2 4 -4 -4
-7 -14 -12 -22 -12 -8 0 -14 -5 -14 -12 0 -6 -3 -9 -6 -6 -3 4 0 17 7 30 8 14
14 18 17 10 2 -6 9 -9 14 -6z m-72 -10 c0 -2 -11 -6 -25 -8 -13 -3 -22 -1 -19
3 5 9 44 13 44 5z"/>
<path d="M1450 389 c0 -5 5 -7 10 -4 6 3 10 8 10 11 0 2 -4 4 -10 4 -5 0 -10
-5 -10 -11z"/>
<path d="M1675 380 c-3 -6 1 -7 9 -4 18 7 21 14 7 14 -6 0 -13 -4 -16 -10z"/>
<path d="M1525 370 l-30 -8 30 0 c17 0 39 3 50 8 l20 9 -20 -1 c-11 0 -33 -4
-50 -8z"/>
<path d="M1652 308 c-7 -7 -12 -9 -12 -4 0 4 -7 1 -15 -8 -18 -17 -20 -30 -4
-20 7 4 21 7 33 8 11 1 22 9 24 19 4 20 -9 22 -26 5z"/>
<path d="M1750 203 c16 -8 12 -23 -5 -17 -11 5 -15 -1 -15 -20 0 -31 29 -37
32 -6 0 11 1 25 2 32 1 6 -5 12 -12 14 -7 1 -8 0 -2 -3z"/>
</g>
</svg>
